<mxfile host="app.diagrams.net" modified="2021-05-26T10:05:12.782Z" agent="5.0 (X11; Linux x86_64) AppleWebKit/537.36 (KHTML, like Gecko) Chrome/90.0.4430.93 Safari/537.36" etag="RCnwZ6BBkyaCj-pgqx0Q" version="14.7.0" type="github">
  <diagram id="oNSS92o_-GYiXgV0fH33" name="Page-1">
    <mxGraphModel dx="1035" dy="533" grid="1" gridSize="10" guides="1" tooltips="1" connect="1" arrows="1" fold="1" page="1" pageScale="1" pageWidth="827" pageHeight="1169" math="0" shadow="0">
      <root>
        <mxCell id="0" />
        <mxCell id="1" parent="0" />
        <mxCell id="2YFqyYWapaVs9yzSWr-e-1" value="&lt;div style=&quot;background-color: rgb(255 , 255 , 255) ; font-family: &amp;#34;droid sans mono&amp;#34; , monospace , monospace , &amp;#34;droid sans fallback&amp;#34; ; font-size: 18px ; line-height: 24px&quot;&gt;&lt;br&gt;&lt;/div&gt;" style="text;html=1;align=center;verticalAlign=middle;resizable=0;points=[];autosize=1;strokeColor=none;" vertex="1" parent="1">
          <mxGeometry x="70" y="85" width="20" height="30" as="geometry" />
        </mxCell>
        <mxCell id="2YFqyYWapaVs9yzSWr-e-6" style="edgeStyle=orthogonalEdgeStyle;rounded=0;orthogonalLoop=1;jettySize=auto;html=1;entryX=0;entryY=0.5;entryDx=0;entryDy=0;" edge="1" parent="1" source="2YFqyYWapaVs9yzSWr-e-2" target="2YFqyYWapaVs9yzSWr-e-4">
          <mxGeometry relative="1" as="geometry" />
        </mxCell>
        <mxCell id="2YFqyYWapaVs9yzSWr-e-11" style="edgeStyle=orthogonalEdgeStyle;rounded=0;orthogonalLoop=1;jettySize=auto;html=1;entryX=0;entryY=0.5;entryDx=0;entryDy=0;" edge="1" parent="1" source="2YFqyYWapaVs9yzSWr-e-2" target="2YFqyYWapaVs9yzSWr-e-8">
          <mxGeometry relative="1" as="geometry" />
        </mxCell>
        <mxCell id="2YFqyYWapaVs9yzSWr-e-12" style="edgeStyle=orthogonalEdgeStyle;rounded=0;orthogonalLoop=1;jettySize=auto;html=1;entryX=0;entryY=0.5;entryDx=0;entryDy=0;" edge="1" parent="1" source="2YFqyYWapaVs9yzSWr-e-2" target="2YFqyYWapaVs9yzSWr-e-10">
          <mxGeometry relative="1" as="geometry" />
        </mxCell>
        <mxCell id="2YFqyYWapaVs9yzSWr-e-2" value="&lt;span style=&quot;font-family: &amp;#34;droid sans mono&amp;#34; , monospace , monospace , &amp;#34;droid sans fallback&amp;#34; ; font-size: 18px ; background-color: rgb(255 , 255 , 255)&quot;&gt;msdc_drv_probe&lt;/span&gt;" style="rounded=0;whiteSpace=wrap;html=1;" vertex="1" parent="1">
          <mxGeometry x="20" y="130" width="170" height="60" as="geometry" />
        </mxCell>
        <mxCell id="2YFqyYWapaVs9yzSWr-e-3" value="&lt;div style=&quot;color: rgb(0 , 0 , 0) ; background-color: rgb(255 , 255 , 255) ; font-family: &amp;#34;droid sans mono&amp;#34; , monospace , monospace , &amp;#34;droid sans fallback&amp;#34; ; font-weight: normal ; font-size: 18px ; line-height: 24px&quot;&gt;&lt;br&gt;&lt;/div&gt;" style="text;whiteSpace=wrap;html=1;" vertex="1" parent="1">
          <mxGeometry x="300" y="85" width="170" height="40" as="geometry" />
        </mxCell>
        <mxCell id="2YFqyYWapaVs9yzSWr-e-4" value="&lt;span style=&quot;font-family: &amp;#34;droid sans mono&amp;#34; , monospace , monospace , &amp;#34;droid sans fallback&amp;#34; ; font-size: 18px ; background-color: rgb(255 , 255 , 255)&quot;&gt;mmc_alloc_host&lt;/span&gt;" style="rounded=0;whiteSpace=wrap;html=1;fillColor=none;gradientColor=none;align=left;" vertex="1" parent="1">
          <mxGeometry x="312" y="130" width="146" height="60" as="geometry" />
        </mxCell>
        <mxCell id="2YFqyYWapaVs9yzSWr-e-8" value="&lt;span style=&quot;font-family: &amp;#34;droid sans mono&amp;#34; , monospace , monospace , &amp;#34;droid sans fallback&amp;#34; ; font-size: 18px ; background-color: rgb(255 , 255 , 255)&quot;&gt;devm_request_irq&lt;/span&gt;" style="rounded=0;whiteSpace=wrap;html=1;fillColor=none;gradientColor=none;align=left;" vertex="1" parent="1">
          <mxGeometry x="312" y="250" width="168" height="60" as="geometry" />
        </mxCell>
        <mxCell id="2YFqyYWapaVs9yzSWr-e-10" value="&lt;span style=&quot;font-family: &amp;#34;droid sans mono&amp;#34; , monospace , monospace , &amp;#34;droid sans fallback&amp;#34; ; font-size: 18px ; background-color: rgb(255 , 255 , 255)&quot;&gt;mmc_add_host&lt;/span&gt;" style="rounded=0;whiteSpace=wrap;html=1;fillColor=none;gradientColor=none;align=left;" vertex="1" parent="1">
          <mxGeometry x="312" y="350" width="158" height="60" as="geometry" />
        </mxCell>
        <mxCell id="2YFqyYWapaVs9yzSWr-e-18" style="edgeStyle=orthogonalEdgeStyle;rounded=0;orthogonalLoop=1;jettySize=auto;html=1;entryX=0;entryY=0.5;entryDx=0;entryDy=0;" edge="1" parent="1" source="2YFqyYWapaVs9yzSWr-e-14" target="2YFqyYWapaVs9yzSWr-e-16">
          <mxGeometry relative="1" as="geometry" />
        </mxCell>
        <mxCell id="2YFqyYWapaVs9yzSWr-e-19" style="edgeStyle=orthogonalEdgeStyle;rounded=0;orthogonalLoop=1;jettySize=auto;html=1;entryX=0;entryY=0.5;entryDx=0;entryDy=0;" edge="1" parent="1" source="2YFqyYWapaVs9yzSWr-e-14" target="2YFqyYWapaVs9yzSWr-e-17">
          <mxGeometry relative="1" as="geometry" />
        </mxCell>
        <mxCell id="2YFqyYWapaVs9yzSWr-e-14" value="&lt;span style=&quot;font-family: &amp;#34;droid sans mono&amp;#34; , monospace , monospace , &amp;#34;droid sans fallback&amp;#34; ; font-size: 18px ; background-color: rgb(255 , 255 , 255)&quot;&gt;mmc_blk_init&lt;/span&gt;" style="rounded=0;whiteSpace=wrap;html=1;fillColor=none;gradientColor=none;align=left;" vertex="1" parent="1">
          <mxGeometry x="40" y="520" width="130" height="60" as="geometry" />
        </mxCell>
        <mxCell id="2YFqyYWapaVs9yzSWr-e-15" value="&lt;div style=&quot;color: rgb(0 , 0 , 0) ; background-color: rgb(255 , 255 , 255) ; font-family: &amp;#34;droid sans mono&amp;#34; , monospace , monospace , &amp;#34;droid sans fallback&amp;#34; ; font-weight: normal ; font-size: 18px ; line-height: 24px&quot;&gt;&lt;br&gt;&lt;/div&gt;" style="text;whiteSpace=wrap;html=1;" vertex="1" parent="1">
          <mxGeometry x="270" y="490" width="420" height="40" as="geometry" />
        </mxCell>
        <mxCell id="2YFqyYWapaVs9yzSWr-e-16" value="&lt;span style=&quot;font-family: &amp;#34;droid sans mono&amp;#34; , monospace , monospace , &amp;#34;droid sans fallback&amp;#34; ; font-size: 18px ; background-color: rgb(255 , 255 , 255)&quot;&gt;register_blkdev(&lt;/span&gt;&lt;span style=&quot;font-family: &amp;#34;droid sans mono&amp;#34; , monospace , monospace , &amp;#34;droid sans fallback&amp;#34; ; font-size: 18px ; background-color: rgb(255 , 255 , 255) ; color: rgb(255 , 0 , 0)&quot;&gt;MMC_BLOCK_MAJOR&lt;/span&gt;&lt;span style=&quot;font-family: &amp;#34;droid sans mono&amp;#34; , monospace , monospace , &amp;#34;droid sans fallback&amp;#34; ; font-size: 18px ; background-color: rgb(255 , 255 , 255)&quot;&gt;,&amp;nbsp;&lt;/span&gt;&lt;span style=&quot;font-family: &amp;#34;droid sans mono&amp;#34; , monospace , monospace , &amp;#34;droid sans fallback&amp;#34; ; font-size: 18px ; background-color: rgb(255 , 255 , 255) ; color: rgb(163 , 21 , 21)&quot;&gt;&quot;mmc&quot;&lt;/span&gt;&lt;span style=&quot;font-family: &amp;#34;droid sans mono&amp;#34; , monospace , monospace , &amp;#34;droid sans fallback&amp;#34; ; font-size: 18px ; background-color: rgb(255 , 255 , 255)&quot;&gt;);&lt;/span&gt;" style="rounded=0;whiteSpace=wrap;html=1;fillColor=none;gradientColor=none;align=left;" vertex="1" parent="1">
          <mxGeometry x="312" y="470" width="400" height="60" as="geometry" />
        </mxCell>
        <mxCell id="2YFqyYWapaVs9yzSWr-e-23" style="edgeStyle=orthogonalEdgeStyle;rounded=0;orthogonalLoop=1;jettySize=auto;html=1;entryX=0;entryY=0.5;entryDx=0;entryDy=0;" edge="1" parent="1" source="2YFqyYWapaVs9yzSWr-e-17" target="2YFqyYWapaVs9yzSWr-e-21">
          <mxGeometry relative="1" as="geometry" />
        </mxCell>
        <mxCell id="2YFqyYWapaVs9yzSWr-e-17" value="&lt;div style=&quot;background-color: rgb(255 , 255 , 255) ; font-family: &amp;#34;droid sans mono&amp;#34; , monospace , monospace , &amp;#34;droid sans fallback&amp;#34; ; font-size: 18px ; line-height: 24px&quot;&gt;mmc_register_driver&lt;/div&gt;" style="rounded=0;whiteSpace=wrap;html=1;fillColor=none;gradientColor=none;align=left;" vertex="1" parent="1">
          <mxGeometry x="312" y="585" width="190" height="60" as="geometry" />
        </mxCell>
        <mxCell id="2YFqyYWapaVs9yzSWr-e-29" style="edgeStyle=orthogonalEdgeStyle;rounded=0;orthogonalLoop=1;jettySize=auto;html=1;entryX=0;entryY=0.5;entryDx=0;entryDy=0;" edge="1" parent="1" source="2YFqyYWapaVs9yzSWr-e-21" target="2YFqyYWapaVs9yzSWr-e-25">
          <mxGeometry relative="1" as="geometry" />
        </mxCell>
        <mxCell id="2YFqyYWapaVs9yzSWr-e-30" style="edgeStyle=orthogonalEdgeStyle;rounded=0;orthogonalLoop=1;jettySize=auto;html=1;entryX=0;entryY=0.5;entryDx=0;entryDy=0;" edge="1" parent="1" source="2YFqyYWapaVs9yzSWr-e-21" target="2YFqyYWapaVs9yzSWr-e-28">
          <mxGeometry relative="1" as="geometry" />
        </mxCell>
        <mxCell id="2YFqyYWapaVs9yzSWr-e-21" value="&lt;span style=&quot;font-family: &amp;#34;droid sans mono&amp;#34; , monospace , monospace , &amp;#34;droid sans fallback&amp;#34; ; font-size: 18px ; background-color: rgb(255 , 255 , 255)&quot;&gt;mmc_blk_probe&lt;/span&gt;" style="rounded=0;whiteSpace=wrap;html=1;fillColor=none;gradientColor=none;align=left;" vertex="1" parent="1">
          <mxGeometry x="650" y="585" width="150" height="60" as="geometry" />
        </mxCell>
        <mxCell id="2YFqyYWapaVs9yzSWr-e-25" value="&lt;span style=&quot;font-family: &amp;#34;droid sans mono&amp;#34; , monospace , monospace , &amp;#34;droid sans fallback&amp;#34; ; font-size: 18px ; background-color: rgb(255 , 255 , 255)&quot;&gt;mmc_blk_alloc&lt;/span&gt;" style="rounded=0;whiteSpace=wrap;html=1;fillColor=none;gradientColor=none;align=left;" vertex="1" parent="1">
          <mxGeometry x="920" y="530" width="140" height="60" as="geometry" />
        </mxCell>
        <mxCell id="2YFqyYWapaVs9yzSWr-e-33" style="edgeStyle=orthogonalEdgeStyle;rounded=0;orthogonalLoop=1;jettySize=auto;html=1;entryX=0;entryY=0.5;entryDx=0;entryDy=0;" edge="1" parent="1" source="2YFqyYWapaVs9yzSWr-e-28" target="2YFqyYWapaVs9yzSWr-e-32">
          <mxGeometry relative="1" as="geometry" />
        </mxCell>
        <mxCell id="2YFqyYWapaVs9yzSWr-e-28" value="&lt;span style=&quot;font-family: &amp;#34;droid sans mono&amp;#34; , monospace , monospace , &amp;#34;droid sans fallback&amp;#34; ; font-size: 18px ; background-color: rgb(255 , 255 , 255)&quot;&gt;mmc_add_disk&lt;/span&gt;" style="rounded=0;whiteSpace=wrap;html=1;fillColor=none;gradientColor=none;align=left;" vertex="1" parent="1">
          <mxGeometry x="920" y="660" width="140" height="60" as="geometry" />
        </mxCell>
        <mxCell id="2YFqyYWapaVs9yzSWr-e-32" value="&lt;span style=&quot;font-family: &amp;#34;droid sans mono&amp;#34; , monospace , monospace , &amp;#34;droid sans fallback&amp;#34; ; font-size: 18px ; background-color: rgb(255 , 255 , 255)&quot;&gt;add_disk&lt;/span&gt;" style="rounded=0;whiteSpace=wrap;html=1;fillColor=none;gradientColor=none;align=left;" vertex="1" parent="1">
          <mxGeometry x="1181" y="660" width="89" height="60" as="geometry" />
        </mxCell>
      </root>
    </mxGraphModel>
  </diagram>
</mxfile>
